<?xml version="1.0" encoding="UTF-8" standalone="no"?>
<!-- Created with Inkscape (http://www.inkscape.org/) -->

<svg
   version="1.1"
   id="svg180"
   width="21.333332"
   height="21.333332"
   viewBox="0 0 21.333332 21.333332"
   xmlns="http://www.w3.org/2000/svg"
   xmlns:svg="http://www.w3.org/2000/svg">
  <defs
     id="defs184" />
  <g
     id="g186">
    <rect
       style="fill:#9c4a00"
       id="rect164"
       width="21.335938"
       height="21.328125"
       x="0"
       y="-0.00390625" />
    <path
       style="fill:#000000;fill-opacity:1;stroke-width:0.03125"
       d="m 0.015625,20.671875 v -0.65625 h 2 2 v -2 -2 h -2 -2 V 15.34375 14.671875 h 4.65625 4.65625 v -2 -2 H 4.671875 0.015625 V 10 9.328125 h 2 2 v -2 -2 h -2 -2 v -0.65625 -0.65625 h 4.65625 4.65625 v -2 -2 H 10 10.671875 v 2 2 h 4.671875 4.671875 v -2 -2 h 0.65625 0.65625 v 2.65625 2.65625 h -2.65625 -2.65625 v 2 2 h 2.65625 2.65625 v 3.34375 3.34375 h -2.65625 -2.65625 v 2 2 h 2.65625 2.65625 v 0.65625 0.65625 H 10.671875 0.015625 Z m 14.65625,-2.65625 v -2 H 10 5.328125 v 2 2 H 10 14.671875 Z m 5.34375,-5.34375 v -2 H 15.34375 10.671875 v 2 2 h 4.671875 4.671875 z m -5.34375,-5.34375 v -2 H 10 5.328125 v 2 2 H 10 14.671875 Z"
       id="path595" />
  </g>
</svg>
